<?xml version="1.0" standalone="no"?>
<!DOCTYPE svg PUBLIC "-//W3C//DTD SVG 20010904//EN"
 "http://www.w3.org/TR/2001/REC-SVG-20010904/DTD/svg10.dtd">
<svg version="1.0" xmlns="http://www.w3.org/2000/svg"
 width="600.000000pt" height="600.000000pt" viewBox="0 0 600.000000 600.000000"
 preserveAspectRatio="xMidYMid meet">
<metadata>
Created by potrace 1.14, written by Peter Selinger 2001-2017
</metadata>
<g transform="translate(0.000000,600.000000) scale(0.100000,-0.100000)"
fill="#000000" stroke="none">
<path d="M0 3000 l0 -3000 3000 0 3000 0 0 3000 0 3000 -3000 0 -3000 0 0
-3000z m1892 2952 c20 -13 47 -40 60 -60 l23 -37 3 -835 c2 -563 0 -847 -7
-871 -15 -51 -48 -88 -95 -110 -39 -18 -85 -19 -874 -19 -727 0 -837 2 -869
15 -50 21 -72 42 -94 90 -18 38 -19 86 -19 865 0 544 4 838 11 863 12 46 68
103 112 116 19 6 367 9 872 8 l840 -2 37 -23z m2000 0 c20 -13 47 -40 60 -60
l23 -37 3 -835 c2 -563 0 -847 -7 -871 -15 -51 -48 -88 -95 -110 -39 -18 -85
-19 -874 -19 -727 0 -837 2 -869 15 -50 21 -72 42 -94 90 -18 38 -19 86 -19
865 0 544 4 838 11 863 12 46 68 103 112 116 19 6 367 9 872 8 l840 -2 37 -23z
m1986 7 c26 -13 54 -38 70 -62 l27 -41 3 -835 c2 -562 0 -848 -8 -872 -14 -51
-47 -88 -94 -110 -39 -18 -85 -19 -876 -19 -791 0 -837 1 -876 19 -47 22 -80
59 -94 110 -8 24 -10 310 -8 872 l3 835 27 41 c15 23 44 49 70 62 43 21 44 21
877 21 830 0 835 0 879 -21z m-4003 -1998 c48 -22 69 -44 90 -94 13 -32 15
-142 15 -869 0 -787 -1 -835 -19 -873 -22 -48 -44 -69 -94 -90 -32 -13 -142
-15 -867 -15 -725 0 -835 2 -867 15 -50 21 -72 42 -94 90 -18 38 -19 86 -19
873 0 727 2 837 15 869 21 50 42 72 90 94 38 18 86 19 875 19 789 0 837 -1
875 -19z m2000 0 c48 -22 69 -44 90 -94 13 -32 15 -142 15 -869 0 -787 -1
-835 -19 -873 -22 -48 -44 -69 -94 -90 -32 -13 -142 -15 -867 -15 -725 0 -835
2 -867 15 -50 21 -72 42 -94 90 -18 38 -19 86 -19 873 0 727 2 837 15 869 21
50 42 72 90 94 38 18 86 19 875 19 789 0 837 -1 875 -19z m2000 0 c48 -22 69
-44 90 -94 13 -32 15 -142 15 -869 0 -787 -1 -835 -19 -873 -22 -48 -44 -69
-94 -90 -32 -13 -142 -15 -867 -15 -725 0 -835 2 -867 15 -50 21 -72 42 -94
90 -18 38 -19 86 -19 873 0 727 2 837 15 869 21 50 42 72 90 94 38 18 86 19
875 19 789 0 837 -1 875 -19z m-4000 -2000 c48 -22 69 -44 90 -94 13 -32 15
-142 15 -869 0 -787 -1 -835 -19 -873 -22 -48 -44 -69 -94 -90 -32 -13 -142
-15 -867 -15 -725 0 -835 2 -867 15 -50 21 -72 42 -94 90 -18 38 -19 86 -19
873 0 727 2 837 15 869 21 50 42 72 90 94 38 18 86 19 875 19 789 0 837 -1
875 -19z m2000 0 c48 -22 69 -44 90 -94 13 -32 15 -142 15 -869 0 -787 -1
-835 -19 -873 -22 -48 -44 -69 -94 -90 -32 -13 -142 -15 -867 -15 -725 0 -835
2 -867 15 -50 21 -72 42 -94 90 -18 38 -19 86 -19 873 0 727 2 837 15 869 21
50 42 72 90 94 38 18 86 19 875 19 789 0 837 -1 875 -19z m2000 0 c48 -22 69
-44 90 -94 13 -32 15 -142 15 -869 0 -787 -1 -835 -19 -873 -22 -48 -44 -69
-94 -90 -32 -13 -142 -15 -867 -15 -725 0 -835 2 -867 15 -50 21 -72 42 -94
90 -18 38 -19 86 -19 873 0 727 2 837 15 869 21 50 42 72 90 94 38 18 86 19
875 19 789 0 837 -1 875 -19z"/>
<path d="M366 5748 c8 -13 320 -441 455 -625 l68 -91 -291 -399 c-160 -219
-293 -404 -295 -411 -4 -10 21 -12 118 -10 l123 3 218 310 c120 171 224 318
231 328 11 17 33 -11 206 -260 107 -153 212 -302 233 -330 l39 -53 120 0 c74
0 119 4 117 10 -2 5 -135 190 -296 410 l-293 400 38 53 c21 28 137 188 259
353 122 166 225 307 228 313 5 8 -28 11 -117 11 l-124 0 -195 -277 c-107 -152
-198 -278 -203 -279 -6 -2 -97 123 -204 276 l-195 280 -123 0 c-97 0 -123 -3
-117 -12z"/>
<path d="M2845 5755 c-147 -32 -252 -92 -357 -203 -136 -145 -198 -318 -198
-557 0 -243 66 -426 205 -568 80 -82 161 -134 265 -171 73 -26 103 -30 215
-34 160 -5 248 12 360 67 134 66 259 198 321 336 49 111 67 216 67 375 -1 173
-20 258 -87 395 -95 191 -257 316 -468 360 -85 18 -242 18 -323 0z m277 -166
c174 -37 321 -185 372 -374 24 -86 31 -255 17 -355 -35 -236 -170 -404 -366
-456 -75 -20 -221 -18 -294 5 -166 52 -291 195 -337 387 -23 94 -23 304 0 398
47 197 203 361 376 395 65 13 171 13 232 0z"/>
<path d="M2366 3748 c12 -19 495 -680 510 -699 12 -14 -22 -66 -277 -415 -160
-219 -294 -405 -296 -412 -4 -10 21 -12 118 -10 l123 3 218 310 c120 171 224
318 231 328 11 17 33 -11 206 -260 107 -153 212 -302 233 -330 l39 -53 120 0
c74 0 119 4 117 10 -1 5 -135 190 -296 410 l-293 400 38 53 c21 28 130 178
243 332 113 154 216 295 228 313 l23 32 -124 0 -124 0 -194 -277 c-107 -152
-199 -278 -205 -280 -5 -1 -96 124 -203 277 l-195 280 -123 0 c-97 0 -123 -3
-117 -12z"/>
<path d="M4850 3755 c-148 -30 -255 -90 -362 -203 -136 -145 -198 -318 -198
-557 0 -243 66 -426 205 -568 80 -82 161 -134 265 -171 73 -26 103 -30 215
-34 160 -5 248 12 360 67 134 66 259 198 321 336 49 111 67 216 67 375 -1 174
-19 258 -88 397 -70 143 -202 267 -343 322 -123 49 -306 64 -442 36z m272
-166 c175 -37 321 -184 372 -374 24 -86 31 -255 17 -355 -35 -236 -170 -404
-366 -456 -75 -20 -221 -18 -294 5 -166 52 -291 195 -337 387 -23 94 -23 304
0 398 46 192 185 344 357 390 66 18 179 20 251 5z"/>
</g>
</svg>
